{
  "source": "C:\\Users\\Peter\\Desktop\\stuff\\MIUN\\quantitative_research\\video_compression\\videos\\BVI-HD\\BVI-HD_CDVL_videos\\ORIG\\CloudsZoom_1920x1080_60fps.mp4",
  "output": "C:\\Users\\Peter\\Desktop\\stuff\\MIUN\\quantitative_research\\video_compression\\compressed_videos\\BVI-HD\\h264\\2.5\\CloudsZoom_1920x1080_60fps_h264.mp4",
  "codec": "h264",
  "ok": "Input #0, mov,mp4,m4a,3gp,3g2,mj2, from 'C:\\Users\\Peter\\Desktop\\stuff\\MIUN\\quantitative_research\\video_compression\\videos\\BVI-HD\\BVI-HD_CDVL_videos\\ORIG\\CloudsZoom_1920x1080_60fps.mp4':\n  Metadata:\n    major_brand     : isom\n    minor_version   : 512\n    compatible_brands: isomiso2avc1mp41\n    encoder         : Lavf54.28.101\n  Duration: 00:00:05.00, start: 0.000000, bitrate: 32589 kb/s\n  Stream #0:0[0x1](und): Video: h264 (High 4:4:4 Predictive) (avc1 / 0x31637661), yuv420p(progressive), 1920x1080, 32586 kb/s, 60 fps, 60 tbr, 60 tbn (default)\n    Metadata:\n      handler_name    : VideoHandler\n      vendor_id       : [0][0][0][0]\n[out#0/mp4 @ 00000229b26c4e40] Codec AVOption b:a (set bitrate (in bits/s)) has not been used for any stream. The most likely reason is either wrong type (e.g. a video option with no video streams) or that it is a private option of some decoder which was not actually used for any stream.\nStream mapping:\n  Stream #0:0 -> #0:0 (h264 (native) -> h264 (libx264))\nPress [q] to stop, [?] for help\n[libx264 @ 00000229b2aef040] using cpu capabilities: MMX2 SSE2Fast SSSE3 SSE4.2 AVX FMA3 BMI2 AVX2\n[libx264 @ 00000229b2aef040] profile High, level 5.0, 4:2:0, 8-bit\n[libx264 @ 00000229b2aef040] 264 - core 165 r3222 b35605a - H.264/MPEG-4 AVC codec - Copyleft 2003-2025 - http://www.videolan.org/x264.html - options: cabac=1 ref=5 deblock=1:0:0 analyse=0x3:0x113 me=hex subme=8 psy=1 psy_rd=1.00:0.00 mixed_ref=1 me_range=16 chroma_me=1 trellis=2 8x8dct=1 cqm=0 deadzone=21,11 fast_pskip=1 chroma_qp_offset=-2 threads=18 lookahead_threads=3 sliced_threads=0 nr=0 decimate=1 interlaced=0 bluray_compat=0 constrained_intra=0 bframes=3 b_pyramid=2 b_adapt=1 b_bias=0 direct=3 weightb=1 open_gop=0 weightp=2 keyint=250 keyint_min=25 scenecut=40 intra_refresh=0 rc_lookahead=50 rc=cbr mbtree=1 bitrate=2500 ratetol=1.0 qcomp=0.60 qpmin=0 qpmax=69 qpstep=4 vbv_maxrate=2500 vbv_bufsize=2500 nal_hrd=none filler=0 ip_ratio=1.40 aq=1:1.00\nOutput #0, mp4, to 'C:\\Users\\Peter\\Desktop\\stuff\\MIUN\\quantitative_research\\video_compression\\compressed_videos\\BVI-HD\\h264\\2.5\\CloudsZoom_1920x1080_60fps_h264.mp4':\n  Metadata:\n    major_brand     : isom\n    minor_version   : 512\n    compatible_brands: isomiso2avc1mp41\n    encoder         : Lavf62.3.100\n  Stream #0:0(und): Video: h264 (avc1 / 0x31637661), yuv420p(tv, progressive), 1920x1080, q=2-31, 2500 kb/s, 60 fps, 15360 tbn (default)\n    Metadata:\n      encoder         : Lavc62.11.100 libx264\n      handler_name    : VideoHandler\n      vendor_id       : [0][0][0][0]\n    Side data:\n      cpb: bitrate max/min/avg: 2500000/0/2500000 buffer size: 2500000 vbv_delay: N/A\nframe=    0 fps=0.0 q=0.0 size=       0KiB time=N/A bitrate=N/A speed=N/A elapsed=0:00:00.51    \nframe=   53 fps= 50 q=28.0 size=       0KiB time=00:00:00.85 bitrate=   0.5kbits/s speed=0.81x elapsed=0:00:01.04    \nframe=  105 fps= 67 q=29.0 size=     256KiB time=00:00:01.71 bitrate=1221.9kbits/s speed=1.09x elapsed=0:00:01.57    \nframe=  168 fps= 80 q=28.0 size=     768KiB time=00:00:02.65 bitrate=2374.3kbits/s speed=1.26x elapsed=0:00:02.10    \nframe=  221 fps= 83 q=29.0 size=    1024KiB time=00:00:03.65 bitrate=2298.4kbits/s speed=1.37x elapsed=0:00:02.66    \nframe=  280 fps= 88 q=26.0 size=    1280KiB time=00:00:04.55 bitrate=2304.6kbits/s speed=1.42x elapsed=0:00:03.19    \n[mp4 @ 00000229b2131200] Starting second pass: moving the moov atom to the beginning of the file\n[out#0/mp4 @ 00000229b26c4e40] video:1451KiB audio:0KiB subtitle:0KiB other streams:0KiB global headers:0KiB muxing overhead: 0.300960%\nframe=  300 fps= 90 q=-1.0 Lsize=    1455KiB time=00:00:04.96 bitrate=2400.1kbits/s speed=1.49x elapsed=0:00:03.33    \n[libx264 @ 00000229b2aef040] frame I:2     Avg QP:16.05  size: 25264\n[libx264 @ 00000229b2aef040] frame P:76    Avg QP:18.18  size:  8382\n[libx264 @ 00000229b2aef040] frame B:222   Avg QP:18.01  size:  3591\n[libx264 @ 00000229b2aef040] consecutive B-frames:  1.3%  0.0%  0.0% 98.7%\n[libx264 @ 00000229b2aef040] mb I  I16..4:  9.6% 90.4%  0.1%\n[libx264 @ 00000229b2aef040] mb P  I16..4:  1.8% 15.2%  0.0%  P16..4: 26.4%  3.7%  1.5%  0.0%  0.0%    skip:51.5%\n[libx264 @ 00000229b2aef040] mb B  I16..4:  0.2%  1.1%  0.0%  B16..8: 24.7%  1.9%  0.0%  direct: 4.3%  skip:67.7%  L0:62.1% L1:37.8% BI: 0.1%\n[libx264 @ 00000229b2aef040] 8x8 transform intra:88.4% inter:99.8%\n[libx264 @ 00000229b2aef040] direct mvs  spatial:95.5% temporal:4.5%\n[libx264 @ 00000229b2aef040] coded y,uvDC,uvAC intra: 17.6% 15.6% 0.5% inter: 0.8% 7.5% 0.0%\n[libx264 @ 00000229b2aef040] i16 v,h,dc,p: 28% 23% 43%  6%\n[libx264 @ 00000229b2aef040] i8 v,h,dc,ddl,ddr,vr,hd,vl,hu: 13%  8% 77%  0%  0%  0%  0%  0%  0%\n[libx264 @ 00000229b2aef040] i4 v,h,dc,ddl,ddr,vr,hd,vl,hu:  9% 19% 21%  5% 11% 11%  8%  7%  9%\n[libx264 @ 00000229b2aef040] i8c dc,h,v,p: 74% 16% 10%  1%\n[libx264 @ 00000229b2aef040] Weighted P-Frames: Y:0.0% UV:0.0%\n[libx264 @ 00000229b2aef040] ref P L0: 46.9%  1.3% 30.6% 12.2%  8.9%\n[libx264 @ 00000229b2aef040] ref B L0: 58.2% 29.9%  9.3%  2.7%\n[libx264 @ 00000229b2aef040] ref B L1: 85.6% 14.4%\n[libx264 @ 00000229b2aef040] kb/s:2375.71\n",
  "seconds": 3.5059680938720703,
  "probe_out": {}
}